<?xml version="1.0" encoding="utf-8"?>
<!-- Generator: Adobe Illustrator 23.0.5, SVG Export Plug-In . SVG Version: 6.00 Build 0)  -->
<svg version="1.1" id="publicdomainvectors.org" xmlns="http://www.w3.org/2000/svg" xmlns:xlink="http://www.w3.org/1999/xlink"
	 x="0px" y="0px" viewBox="0 0 444.16 193.21" style="enable-background:new 0 0 444.16 193.21;" xml:space="preserve">
<style type="text/css">
	.st0{fill-rule:evenodd;clip-rule:evenodd;fill:#996633;}
	.st1{fill-rule:evenodd;clip-rule:evenodd;fill:#94AB13;}
	.st2{fill-rule:evenodd;clip-rule:evenodd;fill:#82970A;}
	.st3{fill-rule:evenodd;clip-rule:evenodd;fill:#FFDB6E;}
	.st4{fill-rule:evenodd;clip-rule:evenodd;fill:#FFFFFF;}
</style>
<g>
	<path class="st0" d="M259.76,156.72c14.06-38.26,6.4-57.47,30.11-98.37c2.4-4.14,0.56-3.7,6.5-1.46
		c-20.67,40.72-13.9,48.33-20.81,88.71c-0.83,4.82-1.86,8.97-3.17,13.67L259.76,156.72z"/>
	<polygon class="st1" points="299.55,57.06 258.45,55.24 243.83,70.27 244.63,44.2 	"/>
	<polygon class="st1" points="265.51,62.6 262.31,82.53 277.32,70.77 296.05,53.63 	"/>
	<polygon class="st1" points="292.99,56.16 303.5,75.86 295.55,86.33 312.76,78.61 312.08,77.71 	"/>
	<polygon class="st1" points="286.65,54.25 338.86,61.3 339.55,77.38 322.44,66.38 	"/>
	<polygon class="st1" points="289.47,57.22 320.6,38.16 335.44,47.53 326.75,59.38 318.08,51.89 	"/>
	<polygon class="st1" points="294.78,59.55 293.24,30.54 272.59,31.9 279.53,45.39 285.3,44.01 	"/>
	<polygon class="st1" points="303.94,38.28 315.07,38.43 292.97,56.44 297.68,32.81 	"/>
</g>
<g>
	<path class="st0" d="M188.3,152.29c5.68-47.13-5.85-67.18,8.71-119.71c1.48-5.32-0.24-4.36,6.04-3.26
		c-11.63,51.57-3.4,58.59-1.65,106.38c0.21,5.71,0.08,10.69-0.22,16.38L188.3,152.29z"/>
	<polygon class="st1" points="206.2,28.72 165.64,36.76 154.51,57.52 149.8,27.56 	"/>
	<polygon class="st1" points="174.1,43.43 175.17,66.97 187.36,49.85 202.06,25.67 	"/>
	<polygon class="st1" points="199.6,29.31 214.02,49.22 208.46,63.13 223.65,50.07 222.8,49.22 	"/>
	<polygon class="st1" points="193,28.69 245.52,23.89 249.59,42.08 230.54,33.73 	"/>
	<polygon class="st1" points="196.38,31.38 222.8,1.97 239.28,9.02 233.28,24.68 223.23,18.26 	"/>
	<polygon class="st1" points="202.06,32.74 194.45,0 174.54,6.63 184.17,20.33 189.52,17.33 	"/>
	<polygon class="st1" points="206.54,6.21 217.45,3.64 199.64,29.63 199.26,1.5 	"/>
</g>
<path class="st2" d="M119.36,161.55c-1.64,0.89-3.52,1.4-5.52,1.4c-6.39,0-11.58-5.18-11.58-11.58c0-5.08,3.28-9.4,7.84-10.96
	c1.93-8.79,9.76-15.37,19.13-15.37c10.27,0,18.69,7.9,19.53,17.96c1.77-0.91,3.78-1.42,5.91-1.42c1.97,0,3.84,0.44,5.51,1.23
	c-0.77-2.13-1.19-4.43-1.19-6.82c0-11.1,9-20.1,20.1-20.1c10.42,0,18.98,7.92,20,18.07c1-0.17,2.02-0.26,3.07-0.26
	c4.5,0,8.61,1.65,11.76,4.38c0.85-3.98,2.79-7.56,5.5-10.4c-1.67-2.12-2.67-4.8-2.67-7.71c0-6.88,5.58-12.47,12.46-12.47
	c6.88,0,12.46,5.58,12.46,12.47c0,0.68-0.05,1.35-0.16,2c5.6,1.75,10.23,5.72,12.84,10.88c1.76-0.64,3.63-1.04,5.59-1.15
	c-0.63-1.67-0.97-3.48-0.97-5.37c0-8.33,6.68-15.1,14.97-15.26c2.5-4.69,7.45-7.89,13.14-7.89c8.22,0,14.88,6.66,14.88,14.88
	c0,0.21,0,0.42-0.01,0.63c7.46,2.87,13.06,9.51,14.44,17.59c8.42,0.55,15.09,7.56,15.09,16.12c0,0.87-0.07,1.73-0.2,2.56
	c1.84,1.73,2.99,4.18,2.99,6.9c0,5.23-4.24,9.47-9.47,9.47c-2.72,0-5.18-1.15-6.91-2.99c-0.84,0.13-1.69,0.2-2.56,0.2
	c-5.48,0-10.33-2.73-13.25-6.91c-2.6,1.01-5.42,1.57-8.37,1.57c-5.56,0-10.67-1.97-14.65-5.26c-2.79,7.24-9.82,12.38-18.04,12.38
	c-6.67,0-12.55-3.38-16.02-8.51c-2.97,1.54-6.34,2.41-9.92,2.41c-6.25,0-11.89-2.65-15.83-6.9c-2.37,7.16-9.11,12.32-17.07,12.32
	c-8.67,0-15.91-6.14-17.6-14.32c-1.74,0.49-3.57,0.75-5.46,0.75c-0.96,0-1.9-0.07-2.83-0.2c0.35,0.98,0.54,2.03,0.54,3.12
	c0,5.13-4.16,9.28-9.28,9.28c-2.45,0-4.69-0.95-6.35-2.51c-1.91,1.11-4.13,1.74-6.5,1.74c-5.58,0-10.34-3.52-12.17-8.47
	c-3.49,3.21-8.15,5.17-13.26,5.17C125.63,164.21,122.26,163.24,119.36,161.55z"/>
<path class="st3" d="M444.16,193.21c0-22.7-99.76-41.21-222.08-41.21C99.76,152,0,170.51,0,193.21"/>
<path class="st1" d="M353.28,159.96c-2.42,0.81-4.91,1.32-7.38,1.46c-12.46,0.73-17.38-2.82-32.12,0.04
	c-27.17,5.31-22.36,4.34-48.91-2.21c-15.75-3.89-26.26,0.9-41.44,4.41c-11.51,2.52-18.44-0.04-29.69-2.34
	c-9.32-1.89-14.71-0.56-23.68,0.82c-15.37,2.02-25.46,2.95-41.07,1.5c-10.12-0.94-20.56-1.13-30.32-4.05
	c-0.42-0.16-0.83-0.32-1.24-0.49C176.53,142.76,271.29,142.96,353.28,159.96z"/>
<path class="st4" d="M260.29,169.57c7.17,0.29,12.6,0.43,19.81,0.17c10.03-0.36,18.53,0.71,28.68-0.33c2.1-0.21,4.05-0.35,6.16-0.43
	c7.7-0.2,14.36,0.51,22.29-0.01c1.22-0.08,2.41-0.13,3.63-0.17c9.74-0.25,19.49-0.46,29.19,0.62c16.82,2.16,20.97-1.03,36.09-1.7
	c2.63-0.12,15.57-0.54,15.53,2.55c-4.54,1.11-13.06,0.1-19.14,0.82c-15.48,1.83-16.48,3.82-33.53,2.32
	c-8.19-0.67-17.01-0.41-25.31-0.49c-5.93-0.01-10.79,0.3-16.86,0.02c-8.15-0.35-11.63-0.01-19.56,0.85
	c-8.44,0.92-14.13,0.21-22.19,0.29c-7.13,0.07-13.45,1.4-20.92,1.3c-10.37-0.15-20.58-0.21-30.96,0.25
	c-12.01,0.55-16.56-4.55-31.66-1.88c-7.07,1.25-9.56,1.95-16.98,2.17l-1.2,0.04c-14.93,0.45-26.98,0.87-41.96-0.86
	c-10.53-1.03-18.37-0.25-28.56-0.29c-9.21-0.04-15.95-2.97-26.35-2.33c-8.15,0.5-12.95,1.62-21.54,1.15
	c-5.48-0.3-10.62-1.01-16.03-1.9c-14.17-2.37-16.58-0.81-29.92,1c-6.95,0.94-8.74,0.78-0.69-1.25c18.21-4.6,19.43-3.74,37.6-2.34
	c8.68,0.63,16.98,0.86,25.66,0.12c10.26-0.87,14.6-0.3,24.53,0.45c4.38,0.33,8.77,0.15,13.15,0.02c15.72-0.48,31.33,1.34,47.22,1.17
	c11.38-0.21,22.83-0.22,34.14-1.58c11.06-1.33,14.9,0.16,25.16,0.74c6.95,0.4,16.41-0.46,23.73-0.56
	C253.12,169.43,256.68,169.46,260.29,169.57z"/>
</svg>
